<?xml version="1.0" encoding="UTF-8" standalone="no"?><!DOCTYPE svg PUBLIC "-//W3C//DTD SVG 1.1//EN" "http://www.w3.org/Graphics/SVG/1.1/DTD/svg11.dtd"><svg width="100%" height="100%" viewBox="0 0 24 24" version="1.1" xmlns="http://www.w3.org/2000/svg" xmlns:xlink="http://www.w3.org/1999/xlink" xml:space="preserve" xmlns:serif="http://www.serif.com/" style="fill-rule:evenodd;clip-rule:evenodd;stroke-linejoin:round;stroke-miterlimit:1.41421;"><rect x="0" y="0" width="24" height="24" style="fill:none;"/><path d="M14.4,0l-9.6,0c-1.32,0 -2.388,1.08 -2.388,2.4l-0.012,19.2c0,1.32 1.068,2.4 2.388,2.4l14.412,0c1.32,0 2.4,-1.08 2.4,-2.4l0,-14.4l-7.2,-7.2Zm2.4,19.2l-9.6,0l0,-2.4l9.6,0l0,2.4Zm0,-4.8l-9.6,0l0,-2.4l9.6,0l0,2.4Zm-3.6,-6l0,-6.6l6.6,6.6l-6.6,0Z" style="fill-rule:nonzero;"/></svg>