<?xml version="1.0" encoding="UTF-8" standalone="no"?><!DOCTYPE svg PUBLIC "-//W3C//DTD SVG 1.1//EN" "http://www.w3.org/Graphics/SVG/1.1/DTD/svg11.dtd"><svg width="100%" height="100%" viewBox="0 0 24 24" version="1.1" xmlns="http://www.w3.org/2000/svg" xmlns:xlink="http://www.w3.org/1999/xlink" xml:space="preserve" xmlns:serif="http://www.serif.com/" style="fill-rule:evenodd;clip-rule:evenodd;stroke-linejoin:round;stroke-miterlimit:1.41421;"><rect x="0" y="0" width="24" height="24" style="fill:none;"/><circle cx="14.727" cy="10.364" r="1.364"/><circle cx="9.273" cy="10.364" r="1.364"/><path d="M23.935,12.72c0.043,-0.229 0.065,-0.469 0.065,-0.72c0,-0.251 -0.022,-0.491 -0.065,-0.72c-0.273,-1.647 -1.484,-2.989 -3.066,-3.458c-0.578,-1.222 -1.396,-2.291 -2.389,-3.175c-1.724,-1.538 -3.993,-2.465 -6.48,-2.465c-2.487,0 -4.756,0.927 -6.48,2.465c-1.004,0.884 -1.822,1.964 -2.389,3.175c-1.582,0.469 -2.793,1.8 -3.066,3.458c-0.043,0.229 -0.065,0.469 -0.065,0.72c0,0.251 0.022,0.491 0.065,0.72c0.273,1.647 1.484,2.989 3.066,3.458c0.567,1.211 1.385,2.28 2.367,3.153c1.724,1.549 4.004,2.487 6.502,2.487c2.498,0 4.778,-0.938 6.513,-2.487c0.982,-0.873 1.8,-1.953 2.367,-3.153c1.571,-0.469 2.782,-1.8 3.055,-3.458Zm-4.299,1.462c-0.109,0 -0.207,-0.022 -0.316,-0.033c-0.218,0.731 -0.535,1.407 -0.938,2.029c-1.364,2.084 -3.709,3.458 -6.382,3.458c-2.673,0 -5.018,-1.374 -6.382,-3.458c-0.403,-0.622 -0.72,-1.298 -0.938,-2.029c-0.109,0.011 -0.207,0.033 -0.316,0.033c-1.2,0 -2.182,-0.982 -2.182,-2.182c0,-1.2 0.982,-2.182 2.182,-2.182c0.109,0 0.207,0.022 0.316,0.033c0.218,-0.731 0.535,-1.407 0.938,-2.029c1.364,-2.084 3.709,-3.458 6.382,-3.458c2.673,0 5.018,1.374 6.382,3.458c0.403,0.622 0.72,1.298 0.938,2.029c0.109,-0.011 0.207,-0.033 0.316,-0.033c1.2,0 2.182,0.982 2.182,2.182c0,1.2 -0.982,2.182 -2.182,2.182Zm-12.545,0c0.829,1.931 2.716,3.273 4.909,3.273c2.193,0 4.08,-1.342 4.909,-3.273l-9.818,0Z" style="fill-rule:nonzero;"/></svg>