<?xml version="1.0" encoding="UTF-8" standalone="no"?><!DOCTYPE svg PUBLIC "-//W3C//DTD SVG 1.1//EN" "http://www.w3.org/Graphics/SVG/1.1/DTD/svg11.dtd"><svg width="100%" height="100%" viewBox="0 0 24 24" version="1.1" xmlns="http://www.w3.org/2000/svg" xmlns:xlink="http://www.w3.org/1999/xlink" xml:space="preserve" xmlns:serif="http://www.serif.com/" style="fill-rule:evenodd;clip-rule:evenodd;stroke-linejoin:round;stroke-miterlimit:1.41421;"><path d="M8.4,1.2l-2.196,2.4l-3.804,0c-1.32,0 -2.4,1.08 -2.4,2.4l0,14.4c0,1.32 1.08,2.4 2.4,2.4l19.2,0c1.32,0 2.4,-1.08 2.4,-2.4l0,-14.4c0,-1.32 -1.08,-2.4 -2.4,-2.4l-3.804,0l-2.196,-2.4l-7.2,0Zm3.6,18c-3.312,0 -6,-2.688 -6,-6c0,-3.312 2.688,-6 6,-6c3.312,0 6,2.688 6,6c0,3.312 -2.688,6 -6,6Z" style="fill-rule:nonzero;"/><rect x="0" y="0" width="24" height="24" style="fill:none;"/><path d="M12,18l1.5,-3.3l3.3,-1.5l-3.3,-1.5l-1.5,-3.3l-1.5,3.3l-3.3,1.5l3.3,1.5l1.5,3.3Z" style="fill:#f1f1f2;fill-rule:nonzero;"/></svg>