<?xml version="1.0" encoding="UTF-8" standalone="no"?><!DOCTYPE svg PUBLIC "-//W3C//DTD SVG 1.1//EN" "http://www.w3.org/Graphics/SVG/1.1/DTD/svg11.dtd"><svg width="100%" height="100%" viewBox="0 0 24 24" version="1.1" xmlns="http://www.w3.org/2000/svg" xmlns:xlink="http://www.w3.org/1999/xlink" xml:space="preserve" xmlns:serif="http://www.serif.com/" style="fill-rule:evenodd;clip-rule:evenodd;stroke-linejoin:round;stroke-miterlimit:1.41421;"><rect x="0" y="0" width="24" height="24" style="fill:none;"/><path d="M14.844,4.461c1.227,0 2.231,-1.003 2.231,-2.23c0,-1.227 -1.004,-2.231 -2.231,-2.231c-1.227,0 -2.231,1.004 -2.231,2.231c0,1.227 1.004,2.23 2.231,2.23Zm-4.015,15.504l1.115,-4.908l2.342,2.231l0,6.692l2.231,0l0,-8.365l-2.342,-2.231l0.669,-3.346c1.45,1.673 3.681,2.789 6.135,2.789l0,-2.231c-2.12,0 -3.904,-1.116 -4.796,-2.677l-1.116,-1.785c-0.446,-0.669 -1.115,-1.115 -1.896,-1.115c-0.334,0 -0.558,0.112 -0.892,0.112l-5.8,2.453l0,5.243l2.231,0l0,-3.793l2.007,-0.78l-1.784,9.034l-5.465,-1.115l-0.447,2.23l7.808,1.562Z" style="fill-rule:nonzero;"/></svg>