<?xml version="1.0" encoding="UTF-8" standalone="no"?><!DOCTYPE svg PUBLIC "-//W3C//DTD SVG 1.1//EN" "http://www.w3.org/Graphics/SVG/1.1/DTD/svg11.dtd"><svg width="100%" height="100%" viewBox="0 0 24 24" version="1.1" xmlns="http://www.w3.org/2000/svg" xmlns:xlink="http://www.w3.org/1999/xlink" xml:space="preserve" xmlns:serif="http://www.serif.com/" style="fill-rule:evenodd;clip-rule:evenodd;stroke-linejoin:round;stroke-miterlimit:1.41421;"><path d="M8.4,11.7c-0.828,0 -1.5,0.672 -1.5,1.5c0,0.828 0.672,1.5 1.5,1.5c0.828,0 1.5,-0.672 1.5,-1.5c0,-0.828 -0.672,-1.5 -1.5,-1.5Zm7.2,0c-0.828,0 -1.5,0.672 -1.5,1.5c0,0.828 0.672,1.5 1.5,1.5c0.828,0 1.5,-0.672 1.5,-1.5c0,-0.828 -0.672,-1.5 -1.5,-1.5Zm-3.6,-11.7c-6.624,0 -12,5.376 -12,12c0,6.624 5.376,12 12,12c6.624,0 12,-5.376 12,-12c0,-6.624 -5.376,-12 -12,-12Zm0,21.6c-5.292,0 -9.6,-4.308 -9.6,-9.6c0,-0.348 0.024,-0.696 0.06,-1.032c2.832,-1.26 5.076,-3.576 6.252,-6.444c2.172,3.072 5.748,5.076 9.792,5.076c0.936,0 1.836,-0.108 2.7,-0.312c0.252,0.852 0.396,1.764 0.396,2.712c0,5.292 -4.308,9.6 -9.6,9.6Z" style="fill-rule:nonzero;"/><rect x="0" y="0" width="24" height="24" style="fill:none;"/></svg>