<?xml version="1.0" encoding="UTF-8" standalone="no"?>
<svg
   xmlns:dc="http://purl.org/dc/elements/1.1/"
   xmlns:cc="http://creativecommons.org/ns#"
   xmlns:rdf="http://www.w3.org/1999/02/22-rdf-syntax-ns#"
   xmlns:svg="http://www.w3.org/2000/svg"
   xmlns="http://www.w3.org/2000/svg"
   xmlns:sodipodi="http://sodipodi.sourceforge.net/DTD/sodipodi-0.dtd"
   xmlns:inkscape="http://www.inkscape.org/namespaces/inkscape"
   enable-background="new 0 0 512 512"
   height="512px"
   id="Layer_1"
   version="1.1"
   viewBox="0 0 512 512"
   width="512px"
   xml:space="preserve"
   sodipodi:docname="facebook_colored.svg"
   inkscape:version="0.92.2 (5c3e80d, 2017-08-06)"><metadata
     id="metadata14"><rdf:RDF><cc:Work
         rdf:about=""><dc:format>image/svg+xml</dc:format><dc:type
           rdf:resource="http://purl.org/dc/dcmitype/StillImage" /></cc:Work></rdf:RDF></metadata><defs
     id="defs12" /><sodipodi:namedview
     pagecolor="#ffffff"
     bordercolor="#666666"
     borderopacity="1"
     objecttolerance="10"
     gridtolerance="10"
     guidetolerance="10"
     inkscape:pageopacity="0"
     inkscape:pageshadow="2"
     inkscape:window-width="1636"
     inkscape:window-height="982"
     id="namedview10"
     showgrid="false"
     inkscape:zoom="0.4609375"
     inkscape:cx="-14.101695"
     inkscape:cy="256"
     inkscape:window-x="0"
     inkscape:window-y="78"
     inkscape:window-maximized="0"
     inkscape:current-layer="Layer_1" /><linearGradient
     gradientTransform="matrix(1 0 0 -1 -41.66 349.04)"
     gradientUnits="userSpaceOnUse"
     id="SVGID_1_"
     x1="97.4419"
     x2="513.1827"
     y1="293.2585"
     y2="-122.4817"><stop
       offset="0"
       style="stop-color:#3B5998"
       id="stop2" /><stop
       offset="1"
       style="stop-color:#336699"
       id="stop4" /></linearGradient><path
     d="M348.49,35.511H163.512c-70.692,0-128,57.307-128,128v184.978c0,70.693,57.308,128,128,128h97.091  v-163.96h-55.542v-69.428h55.542v-41.657c0-57.194,32.284-97.199,83.313-97.199c24.438,0,41.656,0,55.542,0v69.428h-27.771  c-27.743,0-41.657,13.885-41.657,41.657v27.771h69.428l-13.886,69.428h-55.542v163.96h18.459c70.693,0,128-57.307,128-128V163.511  C476.49,92.819,419.183,35.511,348.49,35.511z"
     fill="url(#SVGID_1_)"
     id="path7"
     style="fill:#3b5998;fill-opacity:1" /></svg>