<?xml version="1.0" encoding="UTF-8" standalone="no"?>
<!-- Generator: Adobe Illustrator 19.1.0, SVG Export Plug-In . SVG Version: 6.00 Build 0)  -->

<svg
   xmlns:dc="http://purl.org/dc/elements/1.1/"
   xmlns:cc="http://creativecommons.org/ns#"
   xmlns:rdf="http://www.w3.org/1999/02/22-rdf-syntax-ns#"
   xmlns:svg="http://www.w3.org/2000/svg"
   xmlns="http://www.w3.org/2000/svg"
   xmlns:sodipodi="http://sodipodi.sourceforge.net/DTD/sodipodi-0.dtd"
   xmlns:inkscape="http://www.inkscape.org/namespaces/inkscape"
   version="1.1"
   x="0px"
   y="0px"
   width="24px"
   height="24px"
   viewBox="0 0 24 24"
   enable-background="new 0 0 24 24"
   xml:space="preserve"
   id="svg10"
   sodipodi:docname="phone.svg"
   inkscape:version="0.92.2 (5c3e80d, 2017-08-06)"><metadata
     id="metadata16"><rdf:RDF><cc:Work
         rdf:about=""><dc:format>image/svg+xml</dc:format><dc:type
           rdf:resource="http://purl.org/dc/dcmitype/StillImage" /></cc:Work></rdf:RDF></metadata><defs
     id="defs14" /><sodipodi:namedview
     pagecolor="#ffffff"
     bordercolor="#666666"
     borderopacity="1"
     objecttolerance="10"
     gridtolerance="10"
     guidetolerance="10"
     inkscape:pageopacity="0"
     inkscape:pageshadow="2"
     inkscape:window-width="1522"
     inkscape:window-height="985"
     id="namedview12"
     showgrid="false"
     inkscape:zoom="9.8333333"
     inkscape:cx="-0.66101695"
     inkscape:cy="12"
     inkscape:window-x="0"
     inkscape:window-y="78"
     inkscape:window-maximized="0"
     inkscape:current-layer="svg10" /><g
     id="Bounding_Boxes"><g
       id="ui_x5F_spec_x5F_header_copy_2" /><path
       fill="none"
       d="M0,0h24v24H0V0z"
       id="path3" /></g><g
     id="Outline"><g
       id="ui_x5F_spec_x5F_header" /><path
       d="M6.54,5C6.6,5.89,6.75,6.76,6.99,7.59l-1.2,1.2C5.38,7.59,5.12,6.32,5.03,5H6.54 M16.4,17.02c0.85,0.24,1.72,0.39,2.6,0.45   v1.49c-1.32-0.09-2.59-0.35-3.8-0.75L16.4,17.02 M7.5,3H4C3.45,3,3,3.45,3,4c0,9.39,7.61,17,17,17c0.55,0,1-0.45,1-1v-3.49   c0-0.55-0.45-1-1-1c-1.24,0-2.45-0.2-3.57-0.57c-0.1-0.04-0.21-0.05-0.31-0.05c-0.26,0-0.51,0.1-0.71,0.29l-2.2,2.2   c-2.83-1.45-5.15-3.76-6.59-6.59l2.2-2.2C9.1,8.31,9.18,7.92,9.07,7.57C8.7,6.45,8.5,5.25,8.5,4C8.5,3.45,8.05,3,7.5,3L7.5,3z"
       id="path7"
       style="fill:#ffffff;fill-opacity:1" /></g></svg>